<svg id="Layer_1" data-name="Layer 1" xmlns="http://www.w3.org/2000/svg" viewBox="0 0 123 123"><defs><clipPath id="clip-path"><circle cx="61.5" cy="61.5" r="61.5" fill="none"/></clipPath><style>.cls-5{fill:#fff}</style></defs><circle cx="61.5" cy="61.5" r="61.5" fill="#43a6a7"/><path d="M61.5 0a61.5 61.5 0 010 123" fill="#ff635e"/><g clip-path="url(#clip-path)"><path class="cls-5" d="M38 23.86v5.74s-10.26-3.82-16.9 3.12c-4.83 5-5.23 10.66-3 18.2 21.73 0 25.15 12.18 25.15 12.18L41 49.11l6.84-8.35c.02-9.85-8.13-16.39-9.84-16.9z"/><circle cx="39.91" cy="37.95" r="2.62"/><path d="M43.23 63.1s-3.32-16.7-25-12.18c-2.21-7.54-1.81-13.07 3-18.2C27.74 25.78 38 29.6 38 29.6v-5.74A25.33 25.33 0 0027.13 22c-14 0-21.72 10.46-25 17.51l-39.34 72.32 11.07-2.11-20.36 39.18 14.18-2.51 10.87-30.89c30.78 0 70.21-11.06 64.68-52.4z"/><path d="M56.51 49.11l-8.65-8.35-6.84 8.35h15.49z"/><path class="cls-5" d="M85.5 23.92v5.73s10.27-3.82 16.9 3.12c4.83 5 5.24 10.66 3 18.21-21.71.02-25.13 12.17-25.13 12.17l2.22-14-6.84-8.34c0-9.81 8.14-16.39 9.85-16.89z"/><circle cx="83.59" cy="38" r="2.62"/><path d="M80.27 63.15s3.32-16.7 25-12.17c2.21-7.55 1.81-13.08-3-18.21-6.53-6.94-16.8-3.12-16.8-3.12v-5.73A25.4 25.4 0 0196.37 22c14 0 21.73 10.47 25 17.51l39.33 72.32-11.07-2.11L170 149l-14.18-2.51L145 115.56c-30.83 0-70.26-11.07-64.73-52.41z"/><path d="M67 49.16l8.65-8.35 6.84 8.35H67z"/></g></svg>
